<svg width="24" height="24" viewBox="0 0 24 24" fill="none" xmlns="http://www.w3.org/2000/svg">
<path d="M21.9999 16.9201V19.9201C22.0011 20.1986 21.944 20.4743 21.8325 20.7294C21.7209 20.9846 21.5572 21.2137 21.352 21.402C21.1468 21.5902 20.9045 21.7336 20.6407 21.8228C20.3769 21.912 20.0973 21.9452 19.8199 21.9201C16.7428 21.5857 13.7869 20.5342 11.1899 18.8501C8.77376 17.3148 6.72527 15.2663 5.18993 12.8501C3.49991 10.2413 2.44818 7.27109 2.11993 4.1801C2.09494 3.90356 2.12781 3.62486 2.21643 3.36172C2.30506 3.09859 2.4475 2.85679 2.6347 2.65172C2.82189 2.44665 3.04974 2.28281 3.30372 2.17062C3.55771 2.05843 3.83227 2.00036 4.10993 2.0001H7.10994C7.59524 1.99532 8.06573 2.16718 8.4337 2.48363C8.80167 2.80008 9.04201 3.23954 9.10994 3.7201C9.23656 4.68016 9.47139 5.62282 9.80994 6.5301C9.94448 6.88802 9.9736 7.27701 9.89384 7.65098C9.81409 8.02494 9.6288 8.36821 9.35994 8.6401L8.08994 9.9101C9.51349 12.4136 11.5864 14.4865 14.0899 15.9101L15.3599 14.6401C15.6318 14.3712 15.9751 14.1859 16.3491 14.1062C16.723 14.0264 17.112 14.0556 17.4699 14.1901C18.3772 14.5286 19.3199 14.7635 20.2799 14.8901C20.7657 14.9586 21.2093 15.2033 21.5265 15.5776C21.8436 15.9519 22.0121 16.4297 21.9999 16.9201Z" fill="#15B2F5"/>
</svg>
