<svg width="36" height="36" viewBox="0 0 36 36" fill="none" xmlns="http://www.w3.org/2000/svg">
<g id="Ic_24-Star">
<path id="Star 5" d="M16.0435 6.02106C16.6593 4.12579 19.3406 4.12579 19.9564 6.02106L21.5794 11.0159C21.8548 11.8635 22.6446 12.4374 23.5358 12.4374H28.7878C30.7806 12.4374 31.6091 14.9875 29.9969 16.1588L25.748 19.2458C25.027 19.7696 24.7253 20.6982 25.0007 21.5458L26.6237 26.5406C27.2395 28.4359 25.0703 30.0119 23.458 28.8406L19.2091 25.7536C18.4881 25.2298 17.5118 25.2298 16.7908 25.7536L12.5419 28.8406C10.9297 30.0119 8.7605 28.4359 9.37631 26.5406L10.9992 21.5458C11.2746 20.6982 10.973 19.7696 10.2519 19.2458L6.00305 16.1588C4.39084 14.9875 5.21941 12.4374 7.21221 12.4374H12.4641C13.3553 12.4374 14.1452 11.8635 14.4206 11.0159L16.0435 6.02106Z" fill="#FFA928"/>
</g>
</svg>
