<svg width="150" height="150" viewBox="0 0 150 150" fill="none" xmlns="http://www.w3.org/2000/svg">
<path d="M66.0952 18.4141C70.9915 13.444 79.0085 13.444 83.9048 18.4141L90.4257 25.0334C92.7979 27.4414 96.044 28.786 99.4241 28.7607L108.716 28.6911C115.692 28.6389 121.361 34.3078 121.309 41.2843L121.239 50.5759C121.214 53.9559 122.559 57.2021 124.967 59.5743L131.586 66.0952C136.556 70.9915 136.556 79.0085 131.586 83.9048L124.967 90.4257C122.559 92.7979 121.214 96.0441 121.239 99.4241L121.309 108.716C121.361 115.692 115.692 121.361 108.716 121.309L99.4241 121.239C96.0441 121.214 92.7979 122.559 90.4257 124.967L83.9048 131.586C79.0085 136.556 70.9915 136.556 66.0952 131.586L59.5743 124.967C57.2021 122.559 53.956 121.214 50.5759 121.239L41.2843 121.309C34.3078 121.361 28.6389 115.692 28.6911 108.716L28.7607 99.4241C28.786 96.0441 27.4414 92.7979 25.0334 90.4257L18.4141 83.9048C13.444 79.0085 13.444 70.9915 18.4141 66.0952L25.0334 59.5743C27.4414 57.2021 28.786 53.956 28.7607 50.5759L28.6911 41.2843C28.6389 34.3078 34.3078 28.6389 41.2843 28.6911L50.5759 28.7607C53.9559 28.786 57.2021 27.4414 59.5743 25.0334L66.0952 18.4141Z" fill="#15B2F5" stroke="url(#paint0_linear_806_10369)" stroke-width="4"/>
<path d="M100 62.5L72.6562 87.5L56.25 75.7353" stroke="white" stroke-width="12.5" stroke-linecap="round" stroke-linejoin="round"/>
<defs>
<linearGradient id="paint0_linear_806_10369" x1="75" y1="9.375" x2="224.5" y2="297.5" gradientUnits="userSpaceOnUse">
<stop stop-color="white"/>
<stop offset="1" stop-color="#13ABEC"/>
</linearGradient>
</defs>
</svg>
