<svg width="40" height="40" viewBox="0 0 40 40" fill="none" xmlns="http://www.w3.org/2000/svg">
<g id="Ic-Plumbing-Filled">
<g id="Union">
<path d="M33.3534 7.36161L29.3741 3.5514C27.91 2.14953 25.5262 2.14953 24.0622 3.5514L18.7502 8.63767L22.7295 12.4479L26.7088 8.63767L33.3534 15C34.4081 13.9855 35.0002 12.6123 35.0002 11.1808C35.0002 9.74932 34.4081 8.3761 33.3534 7.36161Z" fill="white"/>
<path d="M8.26962 22.9822C9.29545 24.0059 10.9472 24.0059 11.9557 22.9822L16.2502 18.6961L12.5642 15L8.26962 19.2861C7.24379 20.3099 7.24379 21.9584 8.26962 22.9822Z" fill="white"/>
<path d="M25.5404 12.6679L30.7145 17.6822C30.8843 17.8462 31.0191 18.041 31.111 18.2553C31.2029 18.4696 31.2502 18.6993 31.2502 18.9313C31.2502 19.1633 31.2029 19.393 31.111 19.6074C31.0191 19.8217 30.8843 20.0164 30.7145 20.1805C30.5446 20.3445 30.3429 20.4746 30.121 20.5634C29.899 20.6522 29.6612 20.6979 29.4209 20.6979C29.1807 20.6979 28.9428 20.6522 28.7209 20.5634C28.499 20.4746 28.2973 20.3445 28.1274 20.1805L11.266 36.4635C9.83485 37.8455 7.5047 37.8455 6.07358 36.4635C4.64247 35.0815 4.64247 32.8313 6.07358 31.4492L19.0454 18.9225L13.2108 13.2881C12.9534 13.0425 12.749 12.7501 12.6096 12.4277C12.4701 12.1053 12.3983 11.7594 12.3983 11.41C12.3983 11.0606 12.4701 10.7146 12.6096 10.3922C12.749 10.0698 12.9534 9.77738 13.2108 9.53183C14.275 8.48646 16.018 8.48646 17.1005 9.54955L22.9351 15.1839L25.5404 12.6679Z" fill="white"/>
</g>
</g>
</svg>
