<svg width="40" height="40" viewBox="0 0 40 40" fill="none" xmlns="http://www.w3.org/2000/svg">
<g id="Ic_Bathroom-Filled">
<g id="Vector">
<path d="M37.5 21.25H2.5C2.16848 21.25 1.85054 21.3817 1.61612 21.6161C1.3817 21.8505 1.25 22.1685 1.25 22.5V28.75C1.25199 30.7385 2.0428 32.645 3.44889 34.0511C4.85498 35.4572 6.76149 36.248 8.75 36.25H10V38.75C10 39.0815 10.1317 39.3995 10.3661 39.6339C10.6005 39.8683 10.9185 40 11.25 40C11.5815 40 11.8995 39.8683 12.1339 39.6339C12.3683 39.3995 12.5 39.0815 12.5 38.75V36.25H27.5V38.75C27.5 39.0815 27.6317 39.3995 27.8661 39.6339C28.1005 39.8683 28.4185 40 28.75 40C29.0815 40 29.3995 39.8683 29.6339 39.6339C29.8683 39.3995 30 39.0815 30 38.75V36.25H31.25C33.2385 36.248 35.145 35.4572 36.5511 34.0511C37.9572 32.645 38.748 30.7385 38.75 28.75V22.5C38.75 22.1685 38.6183 21.8505 38.3839 21.6161C38.1495 21.3817 37.8315 21.25 37.5 21.25Z" fill="white"/>
<path d="M20 7.625V6.25C20 5.25544 20.3951 4.30161 21.0983 3.59835C21.8016 2.89509 22.7554 2.5 23.75 2.5C24.7446 2.5 25.6984 2.89509 26.4017 3.59835C27.1049 4.30161 27.5 5.25544 27.5 6.25V18.75H30V6.25C30 4.5924 29.3415 3.00269 28.1694 1.83058C26.9973 0.65848 25.4076 0 23.75 0C22.0924 0 20.5027 0.65848 19.3306 1.83058C18.1585 3.00269 17.5 4.5924 17.5 6.25V7.625C16.0893 7.91512 14.8217 8.68273 13.9109 9.79844C13.0001 10.9141 12.5018 12.3097 12.5 13.75C12.5 14.0815 12.6317 14.3995 12.8661 14.6339C13.1005 14.8683 13.4185 15 13.75 15H23.75C24.0815 15 24.3995 14.8683 24.6339 14.6339C24.8683 14.3995 25 14.0815 25 13.75C24.9982 12.3097 24.4999 10.9141 23.5891 9.79844C22.6783 8.68273 21.4107 7.91512 20 7.625Z" fill="white"/>
</g>
</g>
</svg>
