<svg width="40" height="40" viewBox="0 0 40 40" fill="none" xmlns="http://www.w3.org/2000/svg">
<g id="Ic_Door-Filled">
<g id="Vector">
<path d="M36.2948 9.97837H19.4752C18.9047 9.41933 18.1817 9.04118 17.3971 8.89134C16.6125 8.74151 15.8011 8.82665 15.0647 9.1361C14.3283 9.44555 13.6996 9.96552 13.2575 10.6308C12.8154 11.2961 12.5796 12.0771 12.5796 12.8759C12.5796 13.6747 12.8154 14.4557 13.2575 15.1211C13.6996 15.7864 14.3283 16.3063 15.0647 16.6158C15.8011 16.9252 16.6125 17.0104 17.3971 16.8605C18.1817 16.7107 18.9047 16.3325 19.4752 15.7735H36.2948C36.4485 15.7735 36.5959 15.7125 36.7046 15.6038C36.8133 15.4951 36.8744 15.3477 36.8744 15.194V10.5579C36.8744 10.4042 36.8133 10.2568 36.7046 10.1481C36.5959 10.0394 36.4485 9.97837 36.2948 9.97837Z" fill="white"/>
<path d="M21.6599 0.729492H10.2279C9.46996 0.729492 8.74302 1.0306 8.20704 1.56658C7.67107 2.10256 7.36996 2.8295 7.36996 3.58749L6.82373 36.4132C6.82373 37.1712 7.12484 37.8981 7.66082 38.4341C8.19679 38.9701 8.92374 39.2712 9.68172 39.2712H21.1137C21.8717 39.2712 22.5986 38.9701 23.1346 38.4341C23.6706 37.8981 23.9717 37.1712 23.9717 36.4132L24.5179 17.8775H20.6975C19.3794 18.9422 17.6944 19.4438 16.0086 19.273C14.3229 19.1023 12.7726 18.2732 11.6948 16.9658C10.9878 16.1089 10.5149 15.0834 10.3221 13.9893C10.1293 12.8953 10.2232 11.7699 10.5948 10.7229C10.9663 9.67598 11.6027 8.74312 12.442 8.01527C13.2812 7.28743 14.2948 6.78943 15.3838 6.56981C15.8037 6.48773 16.2305 6.4461 16.6584 6.44549C18.129 6.44238 19.5555 6.94716 20.6968 7.87449H24.5179V3.58749C24.5179 2.8295 24.2168 2.10256 23.6808 1.56658C23.1448 1.0306 22.4179 0.729492 21.6599 0.729492ZM15.3977 24.2667C16.0258 24.2637 16.6373 24.4688 17.1367 24.8497C17.6361 25.2307 17.9953 25.7662 18.1585 26.3728C18.3216 26.9794 18.2795 27.6229 18.0386 28.203C17.7977 28.7831 17.3715 29.2672 16.8267 29.5797V32.8407C16.8267 33.0302 16.7514 33.2119 16.6174 33.3459C16.4834 33.4799 16.3017 33.5552 16.1122 33.5552H14.6832C14.4937 33.5552 14.312 33.4799 14.178 33.3459C14.044 33.2119 13.9687 33.0302 13.9687 32.8407V29.5797C13.4239 29.2672 12.9978 28.7831 12.7569 28.203C12.5159 27.6229 12.4738 26.9794 12.6369 26.3728C12.8001 25.7662 13.1594 25.2307 13.6588 24.8497C14.1581 24.4688 14.7696 24.2637 15.3977 24.2667Z" fill="white"/>
</g>
</g>
</svg>
