<svg width="40" height="40" viewBox="0 0 40 40" fill="none" xmlns="http://www.w3.org/2000/svg">
<g id="Ic_Repair_Filled">
<g id="Union">
<path d="M28.6798 7.95473C28.1228 8.53409 27.8191 9.31066 27.8355 10.1136C27.8697 11.7856 29.2549 13.1134 30.9294 13.0793C31.7335 13.0629 32.4981 12.7282 33.0551 12.1488L37.0855 7.95657C37.8824 9.53889 38.1685 11.329 37.9043 13.0804C37.6401 14.8318 36.8387 16.4584 35.6103 17.7361C34.3819 19.0138 32.7871 19.8798 31.0454 20.2149C29.3036 20.55 27.5007 20.3376 25.8849 19.6071C23.7516 18.0192 22.8051 17.0993 21.5095 15.413C20.7126 13.8307 20.4265 12.0405 20.6907 10.2891C20.9549 8.53774 21.7564 6.91119 22.9847 5.63348C24.2131 4.35578 25.808 3.48976 27.5497 3.15468C29.2914 2.8196 31.0943 3.03194 32.7102 3.76246L28.6798 7.95473Z" fill="white"/>
<path d="M13.6158 23.7865L18.0138 27.9566L11.4846 34.8827C10.9276 35.462 10.1629 35.7967 9.35881 35.8131C8.5547 35.8295 7.77699 35.5263 7.19678 34.9701C6.61658 34.4139 6.2814 33.6504 6.26498 32.8474C6.24856 32.0445 6.55225 31.2679 7.10923 30.6886L13.6158 23.7865Z" fill="white"/>
<path d="M19.1656 16.3031L33.4581 29.8549C34.8708 31.1944 34.946 33.4181 33.6269 34.8497C32.2781 36.3136 29.99 36.3907 28.5454 35.021L14.2529 21.4692C13.0889 20.3655 12.8329 18.6618 13.5166 17.2953L6.88164 10.8991L5.65128 12.1289L2 7.21036L4.25829 4.7162L9.53806 8.24396L8.31768 9.46376L14.9038 15.8128C16.2384 15.0304 17.9841 15.1828 19.1656 16.3031Z" fill="white"/>
</g>
</g>
</svg>
