<svg width="40" height="40" viewBox="0 0 40 40" fill="none" xmlns="http://www.w3.org/2000/svg">
<g id="Ic_Roof_Filled" clip-path="url(#clip0_93_228)">
<g id="Union">
<path d="M13.9111 14.9068L7.61136 14.9068L7.2617 15.58L13.5258 15.58L10.788 20.3623H4.77758L4.42792 21.0355H10.4027L7.88134 25.4399H2.11147L3.6632 22.4568V21.0355H3.68174V20.3623H3.6632V15.58H3.68174V14.9068H3.6632V14.5489H3.68174V13.2195H8.46824L10.2344 9.82422H16.8207L13.9111 14.9068Z" fill="white"/>
<path d="M17.5964 9.82422L14.6868 14.9068H20.1568L23.0664 9.82422H17.5964Z" fill="white"/>
<path d="M23.842 9.82422L20.9324 14.9068L26.8217 14.9068L28.1227 12.3683L36.9616 30.1767H40.3524L29.7655 9.82422H23.842Z" fill="white"/>
<path d="M26.4767 15.58L20.5471 15.58L17.8094 20.3623H24.0258L26.4767 15.58Z" fill="white"/>
<path d="M23.6808 21.0355H17.424L14.9027 25.4399H21.4236L23.6808 21.0355Z" fill="white"/>
<path d="M21.0786 26.113H14.5173L12.191 30.1767H18.996L21.0786 26.113Z" fill="white"/>
<path d="M11.4153 30.1767L13.7417 26.113H8.27163L5.94531 30.1767H11.4153Z" fill="white"/>
<path d="M5.16967 30.1767L7.49599 26.113H1.76131L-0.352539 30.1767H5.16967Z" fill="white"/>
<path d="M14.3014 15.58H19.7714L17.0337 20.3623H11.5637L14.3014 15.58Z" fill="white"/>
<path d="M11.1783 21.0355L8.65699 25.4399H14.127L16.6484 21.0355H11.1783Z" fill="white"/>
<path d="M24.8872 22.472H27.855V25.4398H24.8872V22.472Z" fill="white"/>
<path d="M24.8872 26.1819H27.855V29.1497H24.8872V26.1819Z" fill="white"/>
<path d="M31.5645 22.472H28.5967V25.4398H31.5645V22.472Z" fill="white"/>
<path d="M28.5967 26.1819H31.5645V29.1497H28.5967V26.1819Z" fill="white"/>
</g>
</g>
<defs>
<clipPath id="clip0_93_228">
<rect width="40" height="40" fill="white"/>
</clipPath>
</defs>
</svg>
