<svg width="40" height="40" viewBox="0 0 40 40" fill="none" xmlns="http://www.w3.org/2000/svg">
<g id="Ic_Wall-Filled">
<g id="Vector">
<path d="M5 9C5 8.44771 5.44772 8 6 8H18.0816C18.6339 8 19.0816 8.44772 19.0816 9V13.7568C19.0816 14.309 18.6339 14.7568 18.0816 14.7568H6C5.44771 14.7568 5 14.309 5 13.7568V9Z" fill="white"/>
<path d="M5 18.1216C5 17.5693 5.44772 17.1216 6 17.1216H11.9592C12.5115 17.1216 12.9592 17.5693 12.9592 18.1216V22.8784C12.9592 23.4307 12.5115 23.8784 11.9592 23.8784H6C5.44772 23.8784 5 23.4307 5 22.8784V18.1216Z" fill="white"/>
<path d="M14.7959 18.1216C14.7959 17.5693 15.2436 17.1216 15.7959 17.1216H27.8776C28.4298 17.1216 28.8776 17.5693 28.8776 18.1216V22.8784C28.8776 23.4307 28.4298 23.8784 27.8776 23.8784H15.7959C15.2436 23.8784 14.7959 23.4307 14.7959 22.8784V18.1216Z" fill="white"/>
<path d="M5 27.2432C5 26.691 5.44772 26.2432 6 26.2432H18.0816C18.6339 26.2432 19.0816 26.691 19.0816 27.2432V32C19.0816 32.5523 18.6339 33 18.0816 33H6C5.44771 33 5 32.5523 5 32V27.2432Z" fill="white"/>
<path d="M20.9184 27.2432C20.9184 26.691 21.3661 26.2432 21.9184 26.2432H34C34.5523 26.2432 35 26.691 35 27.2432V32C35 32.5523 34.5523 33 34 33H21.9184C21.3661 33 20.9184 32.5523 20.9184 32V27.2432Z" fill="white"/>
</g>
</g>
</svg>
