<svg width="40" height="40" viewBox="0 0 40 40" fill="none" xmlns="http://www.w3.org/2000/svg">
<g id="Ic_Wood-Tree-Filled">
<path id="Vector" d="M34.721 2.95898H31.1954C30.9727 2.95898 30.7696 3.08466 30.6698 3.28377L27.6698 9.28406L24.6698 3.28377C24.5699 3.08466 24.3668 2.95898 24.1441 2.95898H11.2168C10.892 2.95898 10.6292 3.22208 10.6292 3.54659V18.9291L5.06875 15.3905C4.83692 15.2433 4.53279 15.2755 4.33769 15.4708L1.39966 18.4089C1.17989 18.6289 1.16898 18.9821 1.37613 19.2148L10.6292 29.6247V36.4525C10.6292 36.777 10.892 37.0401 11.2168 37.0401H17.6805V27.6384C17.6805 27.3139 17.9433 27.0508 18.2681 27.0508C18.5929 27.0508 18.8557 27.3139 18.8557 27.6384V37.0401H34.721C35.0458 37.0401 35.3086 36.777 35.3086 36.4525V3.54659C35.3086 3.22208 35.0458 2.95898 34.721 2.95898ZM18.8557 24.1128C18.8557 24.4373 18.5929 24.7004 18.2681 24.7004C17.9433 24.7004 17.6805 24.4373 17.6805 24.1128V22.9376C17.6805 22.6131 17.9433 22.35 18.2681 22.35C18.5929 22.35 18.8557 22.6131 18.8557 22.9376V24.1128Z" fill="white"/>
</g>
</svg>
